<?xml version="1.0" encoding="utf-8"?>
<!-- Generator: Adobe Illustrator 27.5.0, SVG Export Plug-In . SVG Version: 6.00 Build 0)  -->
<svg version="1.1" xmlns="http://www.w3.org/2000/svg" xmlns:xlink="http://www.w3.org/1999/xlink" x="0px" y="0px"
	 viewBox="0 0 2200 2200" style="enable-background:new 0 0 2200 2200;" xml:space="preserve">
<g id="background">
	<rect x="0" y="0" style="fill:transparent;" width="2200" height="2200"/>
</g>
<g id="Objects">
	<g>
		<path style="fill:#FCC000;" d="M1496.911,969.966c-26.849-55.696-65.54-104.104-111.308-144.94
			c-53.494-48.178-118.963-85.01-190.773-97.782c-115.365-20.851-241.354,21.647-319.073,109.577
			c-150.427,175.324-118.581,474.203,130.796,531.956c59.636,13.947,121.823,15.19,180.975-3.178
			c80.65-24.249,145.675-89.706,162.648-173.065c15.644-73.829-13.153-154.711-71.114-202.835
			c-76.128-62.526-200.665-47.185-249.141,41.805c-19.166,35.013-24.059,78.523-8.543,115.913
			c11.221,27.489,34.258,48.935,63.06,56.738c29.405,7.763,66.923,4.343,91.416-14.808c21.886-16.701,31.762-47.053,22.587-72.992
			c-5.387,17.578-15.271,35.368-30.828,45.574c-14.469,9.387-30.764,11.974-48.477,12.473c-51.368,0.851-75.02-43.682-64.697-90.297
			c13.023-58.637,72.552-91.7,130.145-81.58c34.583,5.628,62.855,24.838,82.108,53.826c19.24,28.41,29.352,63.374,27.065,97.643
			c-1.464,22.511-9.015,44.557-19.898,64.102c-41.39,74.346-132.762,97.088-212.452,83.258c-34.772-5.448-70.27-17.046-99.143-35.78
			c-58.782-36.503-88.382-104.537-87.646-172.558c0.354-74.857,30.286-152.166,84.863-203.818
			c45.787-41.638,109.03-65.225,170.662-65.485c93.582-1.186,178.28,60.248,233.807,132.424
			c68.02,87.357,83.151,196.913,40.682,298.516c-39.444,98.157-125.775,174.009-225.126,208.968
			c-67.064,23.812-141.113,28.4-209.935,9.425c-116.156-31.476-216.655-122.282-259.506-235.203
			c-43.93-116.468-23.175-252.226,39.547-358.585c91.29-154.185,275.495-253.465,455.203-231.174
			c143.392,18.084,272.643,112.524,342.641,238.014c13.094,23.22,23.238,48.09,32.661,73.016
			c4.259,11.054,8.36,22.299,12.578,33.422c0.627,1.61,1.248,3.225,1.93,4.836c0.158-3.472,0.185-6.941,0.148-10.412
			c-0.342-13.828-2.135-27.683-5.082-41.201c-35.403-147.885-154.435-267.483-295.962-319.128
			c-107.57-40.035-228.939-35.57-335.825,4.754c-121.477,45.193-227.41,134.305-289.222,248.851
			c-63.01,116.646-83.207,259.044-40.681,386.607C680.8,1425.033,822.193,1549.683,986.71,1580.5
			c105.634,19.88,217.008-1.985,310.312-54.301C1491.9,1419.511,1598.138,1177.281,1496.911,969.966z"/>
		<path style="fill:#FCC000;" d="M1128.969,492.375c2.016-5.524,3.626-11.082,5.098-16.558c4.388-15.561,8.103-31.35,11.459-47.135
			c10.972-53.808,20.352-110.236,10.627-165.54c-2.207-11.593-5.173-23.224-9.717-34.154c-6.477-15.103-28.318-14.667-34.085,0.875
			c-3.09,8.222-4.991,16.264-7.25,24.509c-17.217,69.511-31.132,167.801-10.303,237.306
			C1100.011,507.984,1123.021,508.615,1128.969,492.375z"/>
		<path style="fill:#FCC000;" d="M509.832,505.28c36.434,59.095,94.417,134.923,156.341,168.25
			c15.216,7.844,31.933-7.98,24.656-23.67c-2.48-5.332-5.272-10.4-8.103-15.313c-7.901-14.106-16.438-27.898-25.227-41.432
			c-30.29-45.807-63.557-92.34-109.54-124.569c-7.261-4.931-14.93-9.673-22.839-13.551c-7.368-3.669-14.305-7.249-22.677-3.357
			c-9.515,4.35-13.395,15.849-8.63,25.125C498.623,486.856,504.118,495.882,509.832,505.28z"/>
		<path style="fill:#FCC000;" d="M492.375,1071.031c-5.524-2.016-11.082-3.626-16.558-5.098
			c-15.561-4.388-31.35-8.103-47.135-11.459c-53.808-10.972-110.236-20.352-165.54-10.627c-11.593,2.207-23.224,5.173-34.154,9.717
			c-15.103,6.477-14.667,28.318,0.875,34.085c8.222,3.09,16.264,4.991,24.509,7.25c69.511,17.217,167.801,31.132,237.306,10.303
			C507.984,1099.989,508.615,1076.979,492.375,1071.031z"/>
		<path style="fill:#FCC000;" d="M649.859,1509.172c-5.332,2.48-10.4,5.272-15.313,8.103c-14.106,7.901-27.898,16.438-41.432,25.227
			c-45.807,30.29-92.34,63.558-124.569,109.54c-4.931,7.261-9.673,14.93-13.551,22.839c-3.669,7.368-7.249,14.305-3.357,22.678
			c4.35,9.515,15.849,13.395,25.125,8.63c10.094-4.812,19.12-10.307,28.518-16.021c59.095-36.434,134.923-94.417,168.25-156.341
			C681.373,1518.611,665.55,1501.894,649.859,1509.172z"/>
		<path style="fill:#FCC000;" d="M1071.031,1707.625c-2.016,5.524-3.626,11.082-5.098,16.558
			c-4.388,15.561-8.103,31.35-11.459,47.135c-10.972,53.808-20.352,110.236-10.627,165.54c2.207,11.593,5.173,23.224,9.717,34.154
			c6.477,15.103,28.318,14.667,34.085-0.875c3.09-8.222,4.991-16.264,7.25-24.509c17.217-69.511,31.132-167.801,10.303-237.306
			C1099.989,1692.016,1076.979,1691.385,1071.031,1707.625z"/>
		<path style="fill:#FCC000;" d="M1690.168,1694.72c-36.434-59.095-94.417-134.923-156.341-168.25
			c-15.216-7.844-31.933,7.98-24.656,23.67c2.48,5.332,5.272,10.4,8.103,15.313c7.901,14.106,16.438,27.898,25.227,41.432
			c30.29,45.807,63.557,92.34,109.54,124.569c7.261,4.931,14.93,9.673,22.839,13.551c7.368,3.669,14.305,7.249,22.677,3.356
			c9.515-4.35,13.395-15.849,8.63-25.125C1701.377,1713.144,1695.882,1704.118,1690.168,1694.72z"/>
		<path style="fill:#FCC000;" d="M1970.137,1112.351c-8.222-3.09-16.264-4.991-24.509-7.25
			c-69.511-17.217-167.801-31.132-237.306-10.303c-16.306,5.214-16.937,28.223-0.697,34.172c5.524,2.016,11.082,3.626,16.558,5.098
			c15.561,4.388,31.35,8.103,47.135,11.458c53.808,10.973,110.236,20.352,165.54,10.627c11.593-2.207,23.224-5.173,34.154-9.717
			C1986.115,1139.96,1985.68,1118.119,1970.137,1112.351z"/>
		<path style="fill:#FCC000;" d="M1550.141,690.828c5.332-2.48,10.4-5.272,15.313-8.103c14.106-7.901,27.898-16.438,41.432-25.227
			c45.807-30.289,92.34-63.558,124.569-109.54c4.931-7.261,9.673-14.93,13.551-22.839c3.669-7.368,7.249-14.305,3.357-22.677
			c-4.35-9.515-15.849-13.395-25.125-8.63c-10.094,4.812-19.12,10.307-28.518,16.021c-59.095,36.434-134.923,94.417-168.25,156.341
			C1518.627,681.389,1534.45,698.106,1550.141,690.828z"/>
	</g>
</g>
</svg>
